<?xml version="1.0" encoding="UTF-8" standalone="no"?>
<svg
   version="1.1"
   x="0px"
   y="0px"
   viewBox="0 0 48 60"
   enable-background="new 0 0 48 48"
   xml:space="preserve"
   id="svg3"
   sodipodi:docname="Noun AC 2.svg"
   inkscape:version="1.3.2 (091e20e, 2023-11-25)"
   xmlns:inkscape="http://www.inkscape.org/namespaces/inkscape"
   xmlns:sodipodi="http://sodipodi.sourceforge.net/DTD/sodipodi-0.dtd"
   xmlns="http://www.w3.org/2000/svg"
   xmlns:svg="http://www.w3.org/2000/svg"><defs
     id="defs3" /><sodipodi:namedview
     id="namedview3"
     pagecolor="#ffffff"
     bordercolor="#000000"
     borderopacity="0.25"
     inkscape:showpageshadow="2"
     inkscape:pageopacity="0.0"
     inkscape:pagecheckerboard="0"
     inkscape:deskcolor="#d1d1d1"
     inkscape:zoom="3.9333333"
     inkscape:cx="15.254237"
     inkscape:cy="58.474576"
     inkscape:window-width="1312"
     inkscape:window-height="449"
     inkscape:window-x="0"
     inkscape:window-y="93"
     inkscape:window-maximized="0"
     inkscape:current-layer="svg3" /><g
     id="g2"><path
       d="M15.342,11.638c-6.569,0-11.895,5.325-11.895,11.896c0,6.57,5.325,11.895,11.895,11.895s11.895-5.324,11.895-11.895   C27.236,16.963,21.911,11.638,15.342,11.638z M11.029,13.638c0,0,2.426-1.221,4.279-1c0,0,2.36-0.014,2.008,2.593   c0,0-0.39,2.188-1.187,3.439c-0.112,0.177-0.23,0.373-0.35,0.576c-0.155-0.017-0.313-0.026-0.475-0.026   c-1.349,0-2.549,0.629-3.327,1.607l-0.079-0.042c0,0-1.815-1.997-2.233-2.786C9.13,16.991,8.623,14.654,11.029,13.638z    M14.289,27.769c0,0-0.938,2.529-1.445,3.264c-0.65,0.941-2.492,2.465-4.5,0.795c0,0-2.201-1.592-2.857-3.34   c0,0-1.097-2.09,1.381-2.975c0,0,2.12-0.66,3.6-0.529c0.271,0.025,0.576,0.043,0.89,0.059c0.502,1.266,1.594,2.227,2.936,2.557   L14.289,27.769z M15.306,26.452c-1.646,0-2.981-1.334-2.981-2.98s1.336-2.982,2.981-2.982c1.647,0,2.982,1.336,2.982,2.982   S16.953,26.452,15.306,26.452z M25.379,24.782c0.13,0.441,0.149,0.967,0.007,1.586c0,0-0.434,2.68-1.702,4.051   c0,0-1.375,1.918-3.277,0.102c0,0-1.543-1.598-2.089-2.979c-0.096-0.24-0.208-0.504-0.326-0.773   c0.956-0.779,1.567-1.967,1.567-3.297c0-0.218-0.022-0.431-0.054-0.641c0.788-0.076,2.483-0.224,3.151-0.129   C23.512,22.821,24.974,23.402,25.379,24.782z"
       id="path1" /><path
       d="M44.145,5.413H3.855C1.734,5.413,0,7.148,0,9.269V37.8c0,2.119,1.734,3.855,3.855,3.855h3.833v0.932h3.662v-0.932h25.299   v0.932h3.662v-0.932h3.833c2.12,0,3.855-1.736,3.855-3.855V9.269C48,7.148,46.265,5.413,44.145,5.413z M15.342,36.606   c-7.22,0-13.073-5.852-13.073-13.072s5.854-13.073,13.073-13.073s13.071,5.853,13.071,13.073S22.562,36.606,15.342,36.606z    M43.867,34.921H33.36V12.147h10.507V34.921z"
       id="path2" /></g></svg>
