<?xml version="1.0" encoding="UTF-8" standalone="no"?>
<svg
   version="1.1"
   x="0px"
   y="0px"
   viewBox="0 0 512 640"
   enable-background="new 0 0 512 512"
   xml:space="preserve"
   id="svg11"
   sodipodi:docname="Noun AC.svg"
   inkscape:version="1.3.2 (091e20e, 2023-11-25)"
   xmlns:inkscape="http://www.inkscape.org/namespaces/inkscape"
   xmlns:sodipodi="http://sodipodi.sourceforge.net/DTD/sodipodi-0.dtd"
   xmlns="http://www.w3.org/2000/svg"
   xmlns:svg="http://www.w3.org/2000/svg"><defs
     id="defs11" /><sodipodi:namedview
     id="namedview11"
     pagecolor="#ffffff"
     bordercolor="#000000"
     borderopacity="0.25"
     inkscape:showpageshadow="2"
     inkscape:pageopacity="0.0"
     inkscape:pagecheckerboard="0"
     inkscape:deskcolor="#d1d1d1"
     inkscape:zoom="0.36875"
     inkscape:cx="254.91525"
     inkscape:cy="320"
     inkscape:window-width="1312"
     inkscape:window-height="449"
     inkscape:window-x="0"
     inkscape:window-y="93"
     inkscape:window-maximized="0"
     inkscape:current-layer="svg11" /><g
     id="g10"><path
       d="M477.988,406.743H34.011c-4.142,0-7.5-3.358-7.5-7.5V112.757c0-4.142,3.358-7.5,7.5-7.5h443.977c4.143,0,7.5,3.358,7.5,7.5   v286.485C485.488,403.385,482.131,406.743,477.988,406.743z M41.511,391.743h428.977V120.257H41.511V391.743z"
       id="path1" /><path
       d="M181.931,379.744c-68.233,0-123.744-55.511-123.744-123.744s55.511-123.744,123.744-123.744S305.675,187.767,305.675,256   S250.164,379.744,181.931,379.744z M181.931,147.256c-59.962,0-108.744,48.782-108.744,108.744s48.782,108.744,108.744,108.744   S290.675,315.962,290.675,256S241.893,147.256,181.931,147.256z"
       id="path2" /><g
       id="g7"><path
         d="M195.968,257.787c-4.053,0-7.864-1.578-10.73-4.444l-1.357-1.357c-5.7-5.701-5.909-14.845-0.626-20.797l33.275-51.103    c0.284-0.437,0.613-0.842,0.982-1.211c2.866-2.866,6.677-4.445,10.73-4.445c4.053,0,7.864,1.578,10.73,4.444l20.083,20.083    c2.866,2.866,4.444,6.678,4.444,10.731c0,4.053-1.579,7.864-4.444,10.73c-0.396,0.396-0.837,0.747-1.312,1.046l-51.759,32.549    C203.214,256.454,199.694,257.787,195.968,257.787z M228.331,189.453l-32.861,50.468c-0.284,0.436-0.613,0.842-0.981,1.21    c-0.068,0.068-0.068,0.18,0,0.249l1.356,1.356c0.043,0.042,0.204,0.043,0.248,0c0.396-0.396,0.836-0.747,1.311-1.046l51.06-32.108    c-0.004-0.006-0.009-0.012-0.014-0.018l-20.082-20.082C228.357,189.473,228.347,189.462,228.331,189.453z"
         id="path3" /><path
         d="M135.619,337.569c-4.053,0-7.864-1.578-10.73-4.444l-20.083-20.083c-5.917-5.916-5.917-15.543,0-21.461    c0.369-0.368,0.774-0.698,1.211-0.982l51.1-33.273c2.778-2.47,6.32-3.821,10.068-3.821c4.053,0,7.864,1.578,10.73,4.444    l1.356,1.355c5.685,5.686,5.909,14.793,0.673,20.746l-32.55,51.762c-0.298,0.475-0.649,0.914-1.045,1.311    C143.483,335.991,139.673,337.569,135.619,337.569z M115.385,302.4c0.007,0.013,0.017,0.025,0.027,0.036l20.083,20.083    c0.005,0.005,0.01,0.01,0.017,0.016l32.109-51.061c0.299-0.475,0.649-0.914,1.046-1.311c0.068-0.068,0.068-0.18,0-0.249    l-1.355-1.354c-0.044-0.044-0.205-0.045-0.249-0.001c-0.369,0.368-0.774,0.698-1.211,0.982L115.385,302.4z"
         id="path4" /><path
         d="M181.577,274.865c-5.133,0-9.959-1.999-13.589-5.629c-7.493-7.493-7.493-19.685,0-27.178    c3.63-3.63,8.456-5.629,13.589-5.629s9.959,1.999,13.589,5.629c7.493,7.493,7.493,19.685-0.001,27.178    C191.536,272.866,186.71,274.865,181.577,274.865z M181.577,251.429c-1.127,0-2.186,0.439-2.983,1.235    c-1.645,1.645-1.645,4.321,0,5.965c0.797,0.797,1.856,1.235,2.982,1.235s2.186-0.439,2.982-1.235    c1.645-1.645,1.645-4.321,0.001-5.965C183.763,251.867,182.704,251.429,181.577,251.429z"
         id="path5" /><path
         d="M228.243,336.863c-4.054,0-7.865-1.579-10.731-4.446c-0.368-0.368-0.697-0.774-0.981-1.21l-33.274-51.103    c-5.283-5.952-5.075-15.096,0.625-20.797l1.358-1.357c2.865-2.865,6.676-4.444,10.729-4.444c3.749,0,7.29,1.35,10.069,3.821    l51.101,33.273c0.437,0.284,0.842,0.614,1.211,0.982c2.865,2.866,4.444,6.677,4.444,10.73c0,4.054-1.578,7.865-4.445,10.732    l-19.375,19.375C236.108,335.284,232.297,336.863,228.243,336.863z M195.968,268.506c-0.072,0-0.102,0.029-0.124,0.051    l-1.358,1.357c-0.067,0.067-0.067,0.179,0.001,0.247c0.369,0.368,0.698,0.774,0.982,1.211l32.862,50.469    c0.015-0.009,0.025-0.02,0.035-0.029l19.375-19.375c0.01-0.01,0.019-0.023,0.026-0.038l-50.464-32.859    c-0.437-0.284-0.843-0.614-1.211-0.982C196.07,268.536,196.041,268.506,195.968,268.506z"
         id="path6" /><path
         d="M167.187,257.787c-3.749,0-7.291-1.35-10.069-3.821l-51.1-33.273c-0.437-0.284-0.843-0.614-1.211-0.982    c-2.866-2.866-4.445-6.677-4.445-10.73c0-4.054,1.578-7.865,4.445-10.732l19.375-19.375c2.866-2.866,6.676-4.445,10.73-4.445    c4.053,0,7.864,1.579,10.73,4.445c0.369,0.368,0.698,0.774,0.982,1.211l33.273,51.102c5.283,5.952,5.076,15.096-0.624,20.797    l-1.358,1.358C175.051,256.208,171.24,257.787,167.187,257.787z M115.387,208.895l50.464,32.859    c0.437,0.284,0.843,0.614,1.211,0.982c0.043,0.043,0.204,0.044,0.247,0l1.358-1.357c0.067-0.067,0.067-0.178-0.001-0.247    c-0.369-0.369-0.698-0.774-0.982-1.211l-32.861-50.468c-0.015,0.009-0.025,0.02-0.035,0.029l-19.375,19.375    C115.402,208.867,115.394,208.88,115.387,208.895z"
         id="path7" /></g><g
       id="g9"><path
         d="M151.862,432.5h-59c-4.142,0-7.5-3.358-7.5-7.5v-25.757c0-4.142,3.358-7.5,7.5-7.5h59c4.142,0,7.5,3.358,7.5,7.5V425    C159.362,429.142,156.004,432.5,151.862,432.5z M100.362,417.5h44v-10.757h-44V417.5z"
         id="path8" /><path
         d="M419.138,432.5h-59c-4.143,0-7.5-3.358-7.5-7.5v-25.757c0-4.142,3.357-7.5,7.5-7.5h59c4.143,0,7.5,3.358,7.5,7.5V425    C426.638,429.142,423.28,432.5,419.138,432.5z M367.638,417.5h44v-10.757h-44V417.5z"
         id="path9" /></g><path
       d="M444,218.5H335c-4.143,0-7.5-3.358-7.5-7.5v-36c0-4.142,3.357-7.5,7.5-7.5h109c4.143,0,7.5,3.358,7.5,7.5v36   C451.5,215.142,448.143,218.5,444,218.5z M342.5,203.5h94v-21h-94V203.5z"
       id="path10" /></g></svg>
