<?xml version="1.0" encoding="UTF-8" standalone="no"?>
<svg
   version="1.1"
   x="0px"
   y="0px"
   viewBox="0 0 100 125"
   enable-background="new 0 0 100 100"
   xml:space="preserve"
   id="svg32"
   sodipodi:docname="Noun Space.svg"
   inkscape:version="1.3.2 (091e20e, 2023-11-25)"
   xmlns:inkscape="http://www.inkscape.org/namespaces/inkscape"
   xmlns:sodipodi="http://sodipodi.sourceforge.net/DTD/sodipodi-0.dtd"
   xmlns="http://www.w3.org/2000/svg"
   xmlns:svg="http://www.w3.org/2000/svg"><defs
     id="defs32" /><sodipodi:namedview
     id="namedview32"
     pagecolor="#ffffff"
     bordercolor="#000000"
     borderopacity="0.25"
     inkscape:showpageshadow="2"
     inkscape:pageopacity="0.0"
     inkscape:pagecheckerboard="0"
     inkscape:deskcolor="#d1d1d1"
     inkscape:zoom="1.888"
     inkscape:cx="49.788136"
     inkscape:cy="62.5"
     inkscape:window-width="1312"
     inkscape:window-height="449"
     inkscape:window-x="0"
     inkscape:window-y="93"
     inkscape:window-maximized="0"
     inkscape:current-layer="svg32" /><g
     id="g9"><g
       id="g1"><path
         d="M54.106,58.613c0-0.114-0.092-0.207-0.205-0.207s-0.204,0.093-0.204,0.207C53.696,58.838,54.106,58.836,54.106,58.613z"
         id="path1" /></g><g
       id="g2"><path
         d="M39.299,66.658c1.892-1.435,4.434-1.528,7.552-0.281c5.572,2.226,8.772-0.046,10.891-1.55    c1.041-0.739,1.789-1.274,2.604-1.094c0.42,0.093,0.764,0.367,1.02,0.816c0.281,0.492,0.531,1.054,0.771,1.597    c0.42,0.945,0.995,2.241,1.485,2.277c0.186,0.018,0.89-0.125,2.382-2.471c1.243-1.954,2.617-2.897,4.045-2.802    c1.045,0.068,1.924,0.691,2.596,1.396c0.385-1.665,0.595-3.396,0.595-5.178c0-3.241-0.677-6.323-1.892-9.117    c-1.089,0.341-2.707-0.149-4.924-1.494c-1.401-0.851-2.328-1.193-2.832-1.049c-0.475,0.137-0.836,0.859-1.336,1.859    c-0.617,1.232-1.461,2.918-3.127,4.595c-1.494,1.504-2.669,2.45-3.793,2.45c-0.088,0-0.176-0.006-0.262-0.018    c-1.287-0.171-2.016-1.452-3.222-3.574c-0.542-0.952-1.155-2.032-1.96-3.275c-2.09-3.229-3.668-2.914-5.666-2.51    c-1.402,0.283-2.994,0.603-4.679-0.493c-2.401-1.56-2-4.569-1.208-6.881c-4.887,3.013-8.553,7.809-10.098,13.481    c1.248,1.252,3.244,3.646,2.957,5.94c-0.152,1.228-0.744,2.66-1.369,4.176c-0.451,1.097-0.93,2.269-1.18,3.27    c1.387,4.089,3.893,7.662,7.16,10.346C35.813,73.99,36.308,68.926,39.299,66.658z M65.706,62.909c0.451,0,0.818,0.368,0.818,0.819    c0,0.452-0.367,0.819-0.818,0.819s-0.818-0.367-0.818-0.819C64.888,63.276,65.255,62.909,65.706,62.909z M53.901,58.075    c0.297,0,0.537,0.241,0.537,0.538c0,0.295-0.24,0.536-0.537,0.536s-0.537-0.241-0.537-0.536    C53.364,58.316,53.604,58.075,53.901,58.075z M47.212,50.197c0.598,0,1.086,0.486,1.086,1.086c0,0.599-0.488,1.086-1.086,1.086    c-0.6,0-1.087-0.487-1.087-1.086C46.125,50.684,46.612,50.197,47.212,50.197z M43.509,52.069c0.453,0,0.822,0.369,0.822,0.822    c0,0.454-0.369,0.823-0.822,0.823c-0.455,0-0.824-0.369-0.824-0.823C42.685,52.438,43.054,52.069,43.509,52.069z M39.028,49.301    c0.452,0,0.818,0.368,0.818,0.819c0,0.452-0.366,0.818-0.818,0.818c-0.451,0-0.818-0.367-0.818-0.818    C38.21,49.669,38.577,49.301,39.028,49.301z"
         id="path2" /></g><g
       id="g3"><circle
         cx="47.212"
         cy="51.283"
         r="0.345"
         id="circle2" /></g><g
       id="g4"><path
         d="M40.355,45.494c1.178,0.766,2.29,0.542,3.576,0.283c2.034-0.41,4.567-0.919,7.208,3.16    c0.826,1.279,1.479,2.426,2.002,3.347c0.879,1.543,1.571,2.763,2.127,2.836c0.719,0.097,2.291-1.487,2.807-2.007    c1.498-1.507,2.248-3.008,2.852-4.212c0.645-1.288,1.152-2.305,2.252-2.622c0.961-0.277,2.164,0.084,4.016,1.208    c2.05,1.245,3.041,1.414,3.492,1.381C66.88,41.502,59.2,36.464,50.337,36.464c-3.555,0-6.919,0.81-9.92,2.254    C39.54,40.587,38.259,44.131,40.355,45.494z M57.462,44.915c0.488,0,0.885,0.397,0.885,0.885c0,0.488-0.396,0.885-0.885,0.885    s-0.885-0.397-0.885-0.885C56.577,45.312,56.974,44.915,57.462,44.915z"
         id="path3" /></g><g
       id="g5"><path
         d="M27.842,55.077c-0.264,1.39-0.407,2.823-0.407,4.29c0,1.646,0.176,3.25,0.507,4.798c0.165-0.42,0.338-0.843,0.516-1.276    c0.561-1.358,1.14-2.764,1.27-3.794C29.888,57.794,28.864,56.242,27.842,55.077z"
         id="path4" /></g><g
       id="g6"><path
         d="M56.979,69.176c-0.105,0-0.191,0.086-0.191,0.191c-0.001,0.213,0.385,0.212,0.385,0    C57.173,69.262,57.086,69.176,56.979,69.176z"
         id="path5" /></g><g
       id="g7"><path
         d="M57.604,45.8c0-0.078-0.064-0.142-0.143-0.142s-0.143,0.064-0.143,0.142C57.319,45.958,57.604,45.957,57.604,45.8z"
         id="path6" /></g><g
       id="g8"><path
         d="M69.948,64.629c-1.059-0.061-2.055,1.114-2.693,2.118c-1.443,2.267-2.604,3.24-3.744,3.154    c-1.377-0.102-2.064-1.654-2.73-3.154c-0.227-0.51-0.461-1.037-0.705-1.462c-0.051-0.091-0.084-0.117-0.084-0.118    c-0.178,0.009-0.878,0.506-1.39,0.87c-2.237,1.588-5.98,4.246-12.302,1.717c-2.604-1.04-4.656-1.011-6.104,0.086    c-2.857,2.164-2.973,7.856-2.875,10.367c3.697,2.559,8.18,4.061,13.016,4.061c10.23,0,18.893-6.711,21.83-15.971    C71.622,65.524,70.821,64.685,69.948,64.629z M50.421,70.954c-0.367,0-0.664-0.298-0.664-0.666c0-0.367,0.297-0.665,0.664-0.665    s0.664,0.298,0.664,0.665C51.085,70.655,50.788,70.954,50.421,70.954z M56.979,69.917c-0.303,0-0.549-0.247-0.549-0.55    c0-0.302,0.246-0.549,0.549-0.549c0.305,0,0.55,0.247,0.55,0.549C57.529,69.67,57.284,69.917,56.979,69.917z"
         id="path7" /></g></g><g
     id="g10"><circle
       cx="23.945"
       cy="27.554"
       r="1.563"
       id="circle9" /></g><g
     id="g11"><circle
       cx="67.195"
       cy="34.804"
       r="1.063"
       id="circle10" /></g><g
     id="g12"><circle
       cx="82.883"
       cy="41.366"
       r="1"
       id="circle11" /></g><g
     id="g13"><circle
       cx="23.195"
       cy="71.9"
       r="1.188"
       id="circle12" /></g><g
     id="g14"><circle
       cx="81.883"
       cy="73.846"
       r="1.313"
       id="circle13" /></g><g
     id="g15"><circle
       cx="82.195"
       cy="24.304"
       r="1.688"
       id="circle14" /></g><g
     id="g16"><circle
       cx="72.258"
       cy="23.241"
       r="0.625"
       id="circle15" /></g><g
     id="g17"><circle
       cx="63.766"
       cy="23.044"
       r="0.428"
       id="circle16" /></g><g
     id="g18"><circle
       cx="48.666"
       cy="18.651"
       r="0.41"
       id="circle17" /></g><g
     id="g19"><circle
       cx="31.664"
       cy="33.835"
       r="0.594"
       id="circle18" /></g><g
     id="g20"><circle
       cx="25.383"
       cy="39.241"
       r="0.75"
       id="circle19" /></g><g
     id="g21"><circle
       cx="25.883"
       cy="44.116"
       r="0.5"
       id="circle20" /></g><g
     id="g22"><circle
       cx="20.383"
       cy="51.908"
       r="0.625"
       id="circle21" /></g><g
     id="g23"><circle
       cx="14.32"
       cy="55.554"
       r="1.063"
       id="circle22" /></g><g
     id="g24"><rect
       x="85.633"
       y="53.367"
       transform="matrix(0.8194 0.5733 -0.5733 0.8194 46.7785 -39.5398)"
       width="1"
       height="2.187"
       id="rect23" /></g><g
     id="g25"><rect
       x="85.039"
       y="53.96"
       transform="matrix(0.8193 0.5734 -0.5734 0.8193 46.7942 -39.5463)"
       width="2.188"
       height="1.001"
       id="rect24" /></g><g
     id="g26"><rect
       x="58.122"
       y="29.684"
       transform="matrix(0.8192 0.5735 -0.5735 0.8192 28.072 -28.0306)"
       width="0.751"
       height="1.657"
       id="rect25" /></g><g
     id="g27"><rect
       x="57.668"
       y="30.137"
       transform="matrix(0.8191 0.5737 -0.5737 0.8191 28.086 -28.0376)"
       width="1.657"
       height="0.75"
       id="rect26" /></g><g
     id="g28"><rect
       x="42.684"
       y="27.356"
       transform="matrix(0.8194 0.5733 -0.5733 0.8194 24.1095 -19.6168)"
       width="1"
       height="2.187"
       id="rect27" /></g><g
     id="g29"><rect
       x="42.089"
       y="27.949"
       transform="matrix(0.8193 0.5734 -0.5734 0.8193 24.1175 -19.62)"
       width="2.188"
       height="1.001"
       id="rect28" /></g><g
     id="g30"><path
       d="M59.383,29.116c-2.332,0-4.229-1.897-4.229-4.229s1.897-4.229,4.229-4.229s4.229,1.897,4.229,4.229   S61.715,29.116,59.383,29.116z M59.383,22.657c-1.229,0-2.229,1-2.229,2.229s1,2.229,2.229,2.229s2.229-1,2.229-2.229   S60.612,22.657,59.383,22.657z"
       id="path29" /></g><g
     id="g31"><path
       d="M74.987,42.62c-3.516,0-6.375-2.86-6.375-6.375s2.859-6.375,6.375-6.375s6.375,2.86,6.375,6.375S78.503,42.62,74.987,42.62   z M74.987,31.87c-2.412,0-4.375,1.962-4.375,4.375s1.963,4.375,4.375,4.375s4.375-1.962,4.375-4.375S77.399,31.87,74.987,31.87z"
       id="path30" /></g></svg>
