<?xml version="1.0" encoding="UTF-8"?>
<svg width="1200pt" height="1200pt" version="1.1" viewBox="0 0 1200 1200" xmlns="http://www.w3.org/2000/svg">
 <g>
  <path d="m253.2 675.6c-12-3.6016-26.398 3.6016-30 15.602-24 75.602 16.801 156 92.398 181.2 14.398 4.8008 28.801 7.1992 44.398 7.1992 6 0 10.801 0 15.602-1.1992 13.199-1.1992 22.801-13.199 21.602-26.398-1.1992-13.199-13.199-22.801-26.398-21.602-14.398 2.3984-27.602 1.1992-40.801-3.6016-50.398-16.801-78-70.801-61.199-121.2 3.5977-12-3.6016-26.402-15.602-30z"/>
  <path d="m778.8 394.8c7.1992-1.1992 14.398-2.3984 21.602-2.3984 48 0 90 32.398 102 78 2.3984 10.801 12 18 22.801 18 2.3984 0 4.8008 0 6-1.1992 13.199-3.6016 20.398-16.801 16.801-30-18-66-78-112.8-147.6-112.8-10.801 0-21.602 1.1992-32.398 3.6016-12 3.6016-20.398 15.602-18 28.801 3.5977 11.996 15.598 20.395 28.797 17.996z"/>
  <path d="m1156.8 871.2c4.8008-13.199 7.1992-27.602 7.1992-42v-451.2c0-52.801-28.801-100.8-74.398-126l-420-230.4c-43.199-24-94.801-24-138 0l-421.2 230.4c-45.598 25.199-74.398 73.199-74.398 126v451.2c0 52.801 28.801 100.8 74.398 126l416.4 228c3.6016 2.3984 8.3984 4.8008 14.398 4.8008 12 0 21.602-8.3984 22.801-20.398v-8.3984l0.003906-172.8c0-40.801-32.398-73.199-73.199-73.199h-2.3984l-123.6 2.3984c-104.4 0-189.6-85.199-189.6-189.6 0-81.602 51.602-153.6 128.4-180 6-2.3984 12-7.1992 14.398-14.398 2.3984-7.1992 1.1992-15.602-2.3984-21.602-18-27.602-27.602-58.801-27.602-92.398 0-92.398 75.602-168 168-168 75.602 0 142.8 50.398 162 123.6 2.3984 8.3984 9.6016 14.398 18 16.801 8.3984 2.3984 16.801-1.1992 22.801-7.1992 36-39.602 85.199-61.199 139.2-61.199 104.4 0 189.6 85.199 189.6 189.6 0 63.602-15.602 109.2-46.801 140.4-54 54-148.8 51.602-225.6 50.398h-32.398-2.3984-2.3984-3.6016-6-80.398c-40.801 0-73.199 32.398-73.199 73.199 0 37.199 27.602 68.398 64.801 73.199 2.3984 1.1992 6 1.1992 8.3984 1.1992 12 0 21.602 3.6016 27.602 9.6016 15.602 15.602 15.602 50.398 15.602 69.602v232.8c-1.1992 4.8008 0 10.801 2.3984 15.602l1.1992 1.1992c4.8008 7.1992 12 12 20.398 12 4.8008 0 9.6016-1.1992 14.398-4.8008l152.4-84c36 58.801 100.8 98.398 174 98.398 112.8 0 204-91.199 204-204 0.003906-46.801-15.598-90-43.195-124.8zm-48 141.6-92.398 92.398c-1.1992 1.1992-1.1992 2.3984-2.3984 3.6016-4.8008 4.8008-12 7.1992-18 7.1992h-4.8008c-1.1992 0-1.1992 0-2.3984-1.1992-1.1992 0-1.1992 0-2.3984-1.1992-1.1992 0-1.1992-1.1992-2.3984-1.1992 0 0-1.1992 0-1.1992-1.1992-2.3984-1.1992-4.8008-3.6016-6-6l-92.398-92.398c-9.6016-9.6016-9.6016-24 0-33.602 9.6016-9.6016 24-9.6016 33.602 0l54 54-0.011719-133.2c0-13.199 10.801-24 24-24s24 10.801 24 24v134.4l55.199-55.199c9.6016-9.6016 24-9.6016 33.602 0 9.5977 9.6016 9.5977 24 0 33.602zm7.1992-183.6v2.3984c-33.602-24-75.602-39.602-120-39.602-112.8 0-204 91.199-204 204 0 21.602 3.6016 43.199 9.6016 62.398l-122.4 67.199-0.003906-193.2v-3.6016c0-26.398 0-74.398-30-104.4-14.398-13.199-31.199-20.398-52.801-22.801-2.3984-1.1992-4.8008-1.1992-8.3984-1.1992-13.199 0-25.199-10.801-25.199-25.199 0-13.199 10.801-25.199 25.199-25.199h93.602 32.398c80.398 1.1992 190.8 3.6016 259.2-63.602 40.801-39.602 61.199-97.199 61.199-174 0-130.8-106.8-237.6-237.6-237.6-54 0-105.6 19.199-147.6 51.602-34.801-74.398-110.4-123.6-194.4-123.6-118.8 0-216 97.199-216 216 0 33.602 7.1992 66 21.602 94.801-81.598 38.402-134.4 121.2-134.4 213.6 0 130.8 106.8 237.6 238.8 237.6l127.2-2.4023h1.1992c13.199 1.1992 24 12 24 25.199v135.6l-384-210c-30-16.801-49.199-49.199-49.199-84v-451.2c0-34.801 19.199-67.199 49.199-84l420-230.4c28.801-15.602 63.602-15.602 92.398 0l420 230.4c31.199 16.801 50.398 49.199 50.398 84z"/>
  <path d="m559.2 480c-13.199 0-24 10.801-24 24v138c0 13.199 10.801 24 24 24s24-10.801 24-24v-44.398h64.801v44.398c0 13.199 10.801 24 24 24 14.398 0 24-10.801 24-24v-138c0-13.199-10.801-24-24-24s-24 10.801-24 24v45.602h-64.801v-45.602c0-13.199-10.801-24-24-24z"/>
  <path d="m514.8 633.6c4.8008-4.8008 7.1992-10.801 7.1992-18v-40.801c0-13.199-10.801-24-24-24h-42c-13.199 0-24 10.801-24 24s10.801 24 24 24h18v7.1992c-8.3984 7.1992-19.199 12-30 12-24 0-44.398-20.398-44.398-44.398s19.199-44.398 44.398-44.398c10.801 0 20.398 3.6016 28.801 10.801 9.6016 8.3984 25.199 6 33.602-3.6016 8.3984-9.6016 6-25.199-3.6016-33.602-16.801-14.398-38.398-21.602-60-21.602-50.398 0-92.398 40.801-92.398 92.398 0 50.398 40.801 92.398 92.398 92.398 27.598 0.003906 52.801-11.996 72-32.395z"/>
  <path d="m710.4 573.6c0 50.398 40.801 92.398 92.398 92.398 27.602 0 52.801-12 72-32.398 4.8008-4.8008 7.1992-10.801 7.1992-18v-40.801c0-13.199-10.801-24-24-24h-41.996c-13.199 0-24 10.801-24 24s10.801 24 24 24h18v7.1992c-8.3984 7.1992-19.199 12-30 12-24 0-44.398-20.398-44.398-44.398s19.199-44.398 44.398-44.398c10.801 0 20.398 3.6016 28.801 10.801 9.6016 8.3984 25.199 6 33.602-3.6016 8.3984-9.6016 6-25.199-3.6016-33.602-16.801-14.398-38.398-21.602-60-21.602-50.402 0-92.402 40.801-92.402 92.402z"/>
 </g>
</svg>
