<?xml version="1.0" encoding="UTF-8" standalone="no"?>
<svg
   version="1.1"
   viewBox="-5.0 -10.0 110.0 135.0"
   id="svg3"
   sodipodi:docname="Noun Global Warming 2.svg"
   inkscape:version="1.3.2 (091e20e, 2023-11-25)"
   xmlns:inkscape="http://www.inkscape.org/namespaces/inkscape"
   xmlns:sodipodi="http://sodipodi.sourceforge.net/DTD/sodipodi-0.dtd"
   xmlns="http://www.w3.org/2000/svg"
   xmlns:svg="http://www.w3.org/2000/svg">
  <defs
     id="defs3" />
  <sodipodi:namedview
     id="namedview3"
     pagecolor="#ffffff"
     bordercolor="#000000"
     borderopacity="0.25"
     inkscape:showpageshadow="2"
     inkscape:pageopacity="0.0"
     inkscape:pagecheckerboard="0"
     inkscape:deskcolor="#d1d1d1"
     inkscape:zoom="1.7481481"
     inkscape:cx="54.915254"
     inkscape:cy="67.5"
     inkscape:window-width="1312"
     inkscape:window-height="449"
     inkscape:window-x="0"
     inkscape:window-y="93"
     inkscape:window-maximized="0"
     inkscape:current-layer="svg3" />
  <g
     id="g2">
    <path
       d="m19 66.422v-35.422h-4v35.422c-1.7617 0.76953-3 2.5312-3 4.5781 0 2.7617 2.2383 5 5 5s5-2.2383 5-5c0-2.0508-1.2383-3.8008-3-4.5781z"
       id="path1" />
    <path
       d="m54 10c-11.68 0-22.5 4.9492-30.109 13.672-0.67188-4.4414-4.6797-5.6719-6.8906-5.6719-2.4219 0-7 1.4609-7 7v37.512c-2.5508 2.1016-4 5.1602-4 8.4883 0 6.0703 4.9297 11 11 11 3.3984 0 6.4414-1.5508 8.4609-3.9805 7.5 7.6289 17.801 11.98 28.539 11.98 22.059 0 40-17.941 40-40s-17.941-40-40-40zm37.969 39h-10c-0.10938-7.3398-1.4102-13.328-3.3984-18.199 3.4883-1.0898 5.5781-2.1602 6.4805-2.6719 4.1914 5.9297 6.7188 13.109 6.9219 20.859zm-25.988 0c-0.050781-5.9805-0.53125-11.121-1.2695-15.512 4.9219-0.5 8.8789-1.2891 11.969-2.1289 1.9219 4.6797 3.1719 10.48 3.2812 17.648h-13.988zm13.988 2c-0.10938 7.1719-1.3594 12.969-3.2812 17.648-3.0898-0.83984-7.0508-1.6406-11.969-2.1289 0.73828-4.3906 1.2188-9.5391 1.2695-15.512h13.988zm3.8594-24.488c-0.92188 0.48828-2.8984 1.4492-6.0898 2.4219-4.1016-8.6406-10.391-13.422-15.461-16.02 8.6719 1.9414 16.219 6.8398 21.551 13.59zm-7.9688 2.9609c-2.9883 0.80078-6.8008 1.5508-11.512 2.0312-1.9609-10.012-5.2617-15.809-7.4688-18.762 4.7109 1.4883 13.699 5.6719 18.969 16.73zm-31.859 19.52c0.050781-5.9297 0.53906-11.02 1.2891-15.328 2.6484 0.21094 5.5391 0.32813 8.6992 0.32813 3.1602 0 6.0586-0.12109 8.6992-0.32813 0.75 4.3203 1.2305 9.4102 1.2891 15.328h-19.98zm19.98 2c-0.050781 5.9297-0.53906 11.02-1.2891 15.328-2.6484-0.21094-5.5391-0.32812-8.6992-0.32812-3.1602 0-5.9805 0.089843-8.7188 0.26172-0.73828-4.3008-1.2188-9.3711-1.2695-15.262h19.98zm-1.6602-19.32c-2.5391 0.19922-5.3086 0.32031-8.3281 0.32031-3.0195 0-5.7891-0.12109-8.3281-0.32031 2.3984-11.898 6.7188-17.52 8.3281-19.27 1.6211 1.7617 5.9297 7.3711 8.3281 19.27zm-18.691-0.17969c-4.7109-0.46875-8.5195-1.2305-11.512-2.0312 5.2695-11.059 14.27-15.238 18.969-16.73-2.2109 2.9492-5.5 8.75-7.4688 18.762zm-1.6289 17.5h-13.988c0.10938-7.1719 1.3594-12.969 3.2812-17.648 3.0898 0.83984 7.0508 1.6406 11.969 2.1289-0.73828 4.3906-1.2188 9.5391-1.2695 15.512zm1.25 17.41c-4.6797 0.37891-8.7695 1.0195-12.102 1.9102-1.8398-4.6211-3.0312-10.32-3.1406-17.309h13.988c0.050781 5.9297 0.51953 11.039 1.25 15.41zm2.4883-53.512c-5.0703 2.5898-11.391 7.3711-15.5 16.039-3.2109-0.98047-5.1992-1.9414-6.1094-2.4297 5.5195-7.0117 13.109-11.738 21.602-13.609zm-21.75 15.789c1.1406 0.55859 2.9297 1.3281 5.4297 2.1094-2 4.8594-3.2891 10.859-3.3984 18.199h-2.0195v-20.309zm0 22.309h2.0195c0.10938 7.1719 1.3516 13.059 3.2695 17.859-0.5 0.16016-0.98047 0.32031-1.4297 0.5-0.39844-2.6797-1.7383-5.0898-3.8594-6.8398zm-7 29c-4.9609 0-9-4.0391-9-9 0-2.8594 1.3086-5.4805 3.6016-7.1992l0.39844-0.30078v-8.5h2v-2h-2v-3h2v-2h-2v-3h2v-2h-2v-3h2v-2h-2v-3h2v-2h-2v-3h2v-2h-2v-3c0-4.8086 4.4688-5 5-5s5 0.19141 5 5v38.5l0.39844 0.30078c2.2891 1.7188 3.6016 4.3398 3.6016 7.1992 0 4.9609-4.0391 9-9 9zm9.6211-3.6719c0.80859-1.4492 1.2891-3.1094 1.3594-4.8711 0.57812-0.23828 1.2812-0.48828 2.1211-0.76172 4.0898 8.8516 10.469 13.73 15.602 16.359-7.2188-1.6211-13.879-5.3398-19.078-10.738zm5.3398-6.1602c2.7305-0.69922 6.5117-1.3906 11.66-1.7891 1.9609 10.078 5.2695 15.922 7.4883 18.879-4.7617-1.5-13.898-5.7617-19.148-17.078zm13.691-1.9297c2.4883-0.14844 5.2617-0.23828 8.3516-0.23828 3.0898 0 5.7891 0.12109 8.3281 0.32031-2.3984 11.898-6.7188 17.52-8.3281 19.27-1.6211-1.7617-5.9492-7.3984-8.3516-19.352zm18.711 0.26172c4.7109 0.46875 8.5195 1.2305 11.512 2.0312-5.2695 11.059-14.27 15.238-18.969 16.73 2.2109-2.9492 5.5-8.75 7.4688-18.762zm-2.0703 18.578c5.0586-2.6016 11.359-7.3789 15.461-16.02 3.1914 0.98047 5.1797 1.9297 6.0898 2.4219-5.3203 6.75-12.879 11.648-21.551 13.59zm22.762-15.211c-0.89062-0.51172-2.9883-1.5781-6.4805-2.6719 2-4.8594 3.2891-10.859 3.3984-18.199h10c-0.19922 7.75-2.7305 14.93-6.9219 20.859z"
       id="path2" />
  </g>
</svg>
