<?xml version="1.0" encoding="UTF-8" standalone="no"?>
<svg
   version="1.1"
   viewBox="-5.0 -10.0 110.0 135.0"
   id="svg5"
   sodipodi:docname="Noun Global Warming.svg"
   inkscape:version="1.3.2 (091e20e, 2023-11-25)"
   xmlns:inkscape="http://www.inkscape.org/namespaces/inkscape"
   xmlns:sodipodi="http://sodipodi.sourceforge.net/DTD/sodipodi-0.dtd"
   xmlns="http://www.w3.org/2000/svg"
   xmlns:svg="http://www.w3.org/2000/svg">
  <defs
     id="defs5" />
  <sodipodi:namedview
     id="namedview5"
     pagecolor="#ffffff"
     bordercolor="#000000"
     borderopacity="0.25"
     inkscape:showpageshadow="2"
     inkscape:pageopacity="0.0"
     inkscape:pagecheckerboard="0"
     inkscape:deskcolor="#d1d1d1"
     inkscape:zoom="1.7481481"
     inkscape:cx="54.915254"
     inkscape:cy="67.5"
     inkscape:window-width="1312"
     inkscape:window-height="449"
     inkscape:window-x="0"
     inkscape:window-y="93"
     inkscape:window-maximized="0"
     inkscape:current-layer="svg5" />
  <g
     id="g4">
    <path
       d="m25.742 33.125c0 0.73047-1.0938 0.73047-1.0938 0s1.0938-0.73047 1.0938 0"
       id="path1" />
    <path
       d="m86.836 23.555c-5.0781-7.2656-11.562-11.367-17.891-13.477-0.039062 0-15.391-6.2109-31.211 4.5703l-4.8828-0.39063-0.39062-4.8438c0.039062-0.46875-0.66406-1.2891-1.5234-0.89844l-4.375 2.0703-2.7734-3.9844c-0.39062-0.54687-1.2891-0.625-1.7578 0l-2.7734 3.9844-4.375-2.0703c-0.97656-0.39062-1.4844 0.54688-1.5234 0.89844l-0.39062 4.8438-4.8438 0.39063c-0.35156 0.039062-1.25 0.39062-0.89844 1.5234l2.0703 4.375-3.9844 2.7734c-0.27344 0.19531-0.85938 0.9375 0 1.7578l3.9844 2.7734-2.0703 4.375c-0.15625 0.3125-0.27344 1.2891 0.89844 1.5234l4.8438 0.39062 0.39062 4.8438c0.039063 0.35156 0.46875 1.2891 1.5234 0.89844l4.375-2.0703 2.7734 3.9844c0.15625 0.23438 0.42969 0.42969 0.74219 0.46875 0 0.39062-0.039063 0.74219-0.039063 1.1328 0 6.875 1.9922 13.281 5.3906 18.711v28.047c0 2.3828 1.9141 4.2969 4.2969 4.2969s4.2969-1.9141 4.2969-4.2969v-5.7422c0-1.3672 1.1328-2.5 2.5-2.5s2.5 1.1328 2.5 2.5v1.7578c0 1.8359 1.4844 3.3203 3.3203 3.3203 1.8359 0 3.3203-1.4844 3.3203-3.3203v-3.9453c0-2.1875 1.6406-3.9453 3.7891-4.1797 0.625 0.11719 1.25 0.19531 1.9141 0.27344 1.5625 0.58594 2.6953 2.1094 2.6953 3.9062v4.6484c0 2.3828 1.9141 4.2969 4.2969 4.2969 2.3828 0 4.2969-1.9141 4.2969-4.2969v-9.1406c1.1328-0.23438 2.2656-0.54688 3.3984-0.9375v3.0078c0 2.3828 1.9141 4.2969 4.2969 4.2969s4.2969-1.9141 4.2969-4.2969v-7.1875c3.4766-2.3438 6.5234-5.2734 8.9844-8.6719v0.66406c0 1.8359 1.4844 3.3203 3.3203 3.3203 1.8359 0 3.3203-1.4844 3.3203-3.3203v-22.07c-0.15625-7.3828-2.6562-14.18-6.1328-18.984zm-28.828-13.125 0.15625 3.2812-8.125 1.4453c-0.42969 0.078125-0.78125 0.42969-0.85937 0.85938l-0.82031 4.1016-7.8516 3.4766c-0.11719 0.039062-0.23437 0.11719-0.3125 0.23438l-4.6094 4.6484c-0.23438 0.23438-0.3125 0.50781-0.3125 0.82031l0.23437 3.9453c0 0.3125 0.15625 0.58594 0.39063 0.78125 0.23437 0.19531 0.54687 0.27344 0.85937 0.23437l3.4766-0.58594 1.2109 1.7969-1.7188 6.0156c-0.078124 0.23438-0.039062 0.46875 0.039063 0.66406l1.7969 4.6875v3.6328l-2.8906-1.0156-2.3438-3.4375c-0.11719-0.19531-0.3125-0.3125-0.50781-0.39062l-3.3984-1.25 1.0938-3.125c0.11719-0.35156 0.039063-0.74219-0.19531-1.0547l-3.6328-4.4141 3.0469-3.2422c0.35156-0.35156 0.39062-0.89844 0.11719-1.3281l-3.125-4.8828c2.2656-3.7109 5.2344-6.9531 8.7109-9.4922 5.4688-4.0234 12.07-6.3281 19.57-6.4062zm-35 29.023-2.5-3.5547c-0.19531-0.3125-0.74219-0.66406-1.3281-0.35156l-3.8281 1.7969-0.35156-4.2188c-0.039062-0.50781-0.46875-0.9375-0.97656-0.97656l-4.2188-0.35156 1.7969-3.8281c0.23438-0.46875 0.078126-1.0547-0.35156-1.3281l-3.4375-2.4219 3.4766-2.4219c0.42969-0.3125 0.58594-0.85938 0.35156-1.3281l-1.7969-3.8281 4.2188-0.35156c0.50781-0.039062 0.9375-0.46875 0.97656-0.97656l0.35156-4.2188 3.8281 1.7969c0.46875 0.23438 1.0547 0.078125 1.3281-0.35156l2.4219-3.4766 2.4219 3.4766c0.3125 0.42969 0.85938 0.58594 1.3281 0.35156l3.8281-1.7969 0.35156 4.2188c0.039062 0.50781 0.46875 0.9375 0.97656 0.97656l3.4375 0.27344c-1.1719 0.97656-2.2656 2.0312-3.2812 3.1641-1.6406-3.3203-5.0781-5.625-9.0234-5.625-5.5469 0-10.078 4.5312-10.078 10.078 0 5.5469 4.7656 10.664 11.133 10-0.58594 1.6797-1.0547 5.2734-1.0547 5.2734zm-8.0078-15.234c0-4.375 3.5547-7.9297 7.9297-7.9297 3.4375 0 6.4062 2.2266 7.4609 5.3125-2.4609 3.0859-4.375 6.5625-5.7031 10.352-5.7031 1.1328-9.6875-3.3594-9.6875-7.7344zm31.289 58.008v3.9453c0 0.66406-0.54687 1.1719-1.1719 1.1719s-1.1719-0.54688-1.1719-1.1719v-1.7578c0-2.5781-2.0703-4.6484-4.6484-4.6484s-4.6484 2.0703-4.6484 4.6484v5.7422c0 1.1719-0.97656 2.1484-2.1484 2.1484s-2.1484-0.97656-2.1484-2.1484v-25c4.6094 5.8203 10.977 10.156 18.32 12.148-1.4453 1.1719-2.3828 2.9297-2.3828 4.9219zm16.953 4.6875c0 1.1719-0.97656 2.1484-2.1484 2.1484s-2.1484-0.97656-2.1484-2.1484v-4.6484c0-1.3672-0.42969-2.6562-1.2109-3.7109 0.039063 0 3.5156 0 5.5078-0.39063zm5.5469-12.383c-3.3984 1.2109-7.0703 1.8359-10.898 1.8359-18.164 0-32.969-14.805-32.969-32.969 0-5.3906 1.2891-10.469 3.5938-14.961l2.0703 3.2422-3.125 3.3203c-0.35156 0.39062-0.39063 1.0156-0.039063 1.4062l3.8281 4.6875-1.25 3.5547c-0.19531 0.54687 0.078125 1.1719 0.625 1.3672l4.1016 1.5234 2.3438 3.4375c0.11719 0.19531 0.3125 0.3125 0.54688 0.39063l4.6484 1.6406c0.9375 0.3125 1.4844-0.46875 1.4453-1.0156v-5.3516c0-0.11719-0.039063-0.27344-0.078126-0.39062l-1.7188-4.5312 1.7578-6.1719c0.078125-0.3125 0.039063-0.625-0.15625-0.89844l-1.875-2.7734c-0.23438-0.35156-0.66406-0.54688-1.0547-0.46875l-3.0078 0.50781-0.11719-2.2656 4.1406-4.1406 8.1641-3.6328c0.3125-0.15625 0.54688-0.42969 0.625-0.78125l0.78125-3.9062 8.3203-1.4844c0.54687-0.078125 0.89844-0.58594 0.89844-1.0938l-0.19531-4.0625c2.6172 0.19531 5.1562 0.66406 7.5781 1.4453l1.6016 5.2344-0.97656 0.97656-5.4297-0.78125c-0.35156-0.039063-0.66406 0.078125-0.89844 0.3125l-2.9688 2.9297c-0.19531 0.19531-0.3125 0.46875-0.3125 0.78125v1.9531l-3.2422 1.6406c-0.15625 0.078126-0.27344 0.19531-0.39062 0.3125l-2.6172 3.5938c-0.23437 0.3125-0.27344 0.74219-0.11719 1.0938l1.1719 2.4219c0.23438 0.50781 0.85938 0.74219 1.4062 0.50781l6.6016-2.8516 1.9141 1.9141c0.15625 0.15625 0.39062 0.27344 0.625 0.3125l6.7578 0.82031-0.078126 1.2109-2.2656-0.3125c-0.27344-0.039062-0.54688 0.039062-0.78125 0.19531l-3.9844 2.8516-3.4766-2.6562c-0.27344-0.19531-0.625-0.27344-0.9375-0.19531l-7.0312 1.9141c-0.35156 0.11719-0.66406 0.39062-0.74219 0.74219l-0.54687 1.9922-2.9688 0.58594c-0.42969 0.078124-0.74219 0.39062-0.85938 0.82031l-1.2109 5.5469c-0.039063 0.23438-0.039063 0.42969 0.078125 0.66406l1.1719 2.8125c0.15625 0.39062 0.50781 0.625 0.9375 0.66406l6.3672 0.3125 4.3359 2.0312 0.19531 3.2422c0 0.27344 0.15625 0.54687 0.35156 0.74219l2.3047 2.1094-1.6016 3.3594c-0.11719 0.23438-0.11719 0.50781-0.039062 0.78125l2.1875 6.9922c0.15625 0.54688 0.74219 0.85938 1.2891 0.74219l5.2344-1.2891zm17.578-14.492c-2.3047 3.9062-5.3516 7.3047-8.9844 9.9609v-7.6562c0-0.078125 0-0.15625-0.039062-0.23438l-1.25-5.3125 4.8828-5.2734c0.11719-0.11719 0.19531-0.3125 0.27344-0.46875l1.7578-7.2656 1.875-5.3906 1.1719 1.0547 0.35156 3.3594zm4.4922 4.5703c0 0.66406-0.54688 1.1719-1.1719 1.1719s-1.1719-0.54688-1.1719-1.1719v-21.875c0-0.039063-0.39062-3.9453-0.39062-3.9453-0.039062-0.27344-0.15625-0.50781-0.35156-0.70312l-2.6562-2.4219c-0.89844-0.74219-1.6016 0.11719-1.7188 0.42969l-2.4219 6.9922c0 0.039062-1.7188 7.1484-1.7188 7.1484l-5.0781 5.4688c-0.23438 0.27344-0.35156 0.625-0.27344 0.97656l1.3281 5.7422v17.344c0 1.1719-0.97656 2.1484-2.1484 2.1484-1.1719 0-2.1484-0.97656-2.1484-2.1484v-12.148c-0.039062-0.85938-0.78125-1.1328-1.3281-1.0547l-5.5859 1.3672-1.7578-5.625 1.7578-3.7109c0.19531-0.42969 0.11719-0.9375-0.23438-1.25l-2.5781-2.3438-0.23438-3.4375c-0.039062-0.39062-0.27344-0.74219-0.625-0.89844l-5.0781-2.4219c-0.11719-0.078126-0.27344-0.078126-0.39063-0.11719l-5.8984-0.3125-0.78125-1.875 0.97656-4.5312 2.9297-0.58594c0.39062-0.078124 0.70312-0.39062 0.82031-0.78125l0.54687-2.0703 5.9375-1.6406 3.7109 2.8125c0.39062 0.27344 0.89844 0.27344 1.2891 0l4.2578-3.125 2.9688 0.42969c0.3125 0.039063 0.58594-0.039062 0.82031-0.23437 0.23437-0.19531 0.39062-0.46875 0.39062-0.74219l0.23438-3.3594c0.039062-0.58594-0.39063-1.0547-0.9375-1.1328l-7.3828-0.9375-2.1484-2.1484c-0.3125-0.3125-0.78125-0.39062-1.1719-0.23438l-6.3281 2.7344-0.42969-0.89844 2.0703-2.8516 3.5938-1.7969c0.35156-0.19531 0.58594-0.54688 0.58594-0.97656v-2.1484l2.2656-2.2656 5.4297 0.78125c0.35156 0.039063 0.66406-0.078125 0.89844-0.3125l1.8359-1.7969c0.27344-0.27344 0.39062-0.70312 0.27344-1.0938l-1.3281-4.2969c12.07 4.8828 20.234 16.562 20.586 29.727-0.039063 0.15625-0.039063 22.148-0.039063 22.148z"
       id="path2" />
    <path
       d="m89.688 69.727c-1.8359 0-3.3203 1.4844-3.3203 3.3203v1.9922c-0.039063 1.25 0.82031 3.1641 3.3594 3.3203 1.8359 0 3.3203-1.4844 3.3203-3.3203v-1.9922c-0.039063-1.7969-1.5234-3.3203-3.3594-3.3203zm1.1719 5.3125c0 0.66406-0.54688 1.1719-1.1719 1.1719-1.0156-0.039063-1.1719-0.85938-1.1719-1.1719v-1.9922c0-0.66406 0.54688-1.1719 1.1719-1.1719s1.1719 0.54688 1.1719 1.1719z"
       id="path3" />
    <path
       d="m73.086 85.625c-2.3828 0-4.2969 1.9141-4.2969 4.2969v0.23438c0 2.3828 1.9141 4.2969 4.2969 4.2969 2.3828 0 4.2969-1.9141 4.2969-4.2969v-0.23438c0-2.3828-1.9141-4.2969-4.2969-4.2969zm2.1484 4.5312c0 1.1719-0.97656 2.1484-2.1484 2.1484-1.1719 0-2.1484-0.97656-2.1484-2.1484v-0.23438c0-1.1719 0.97656-2.1484 2.1484-2.1484 1.1719 0 2.1484 0.97656 2.1484 2.1484z"
       id="path4" />
  </g>
</svg>
