<?xml version="1.0" encoding="UTF-8" standalone="no"?>
<svg
   version="1.1"
   viewBox="-5.0 -10.0 110.0 135.0"
   id="svg7"
   sodipodi:docname="Noun Thermal.svg"
   inkscape:version="1.3.2 (091e20e, 2023-11-25)"
   xmlns:inkscape="http://www.inkscape.org/namespaces/inkscape"
   xmlns:sodipodi="http://sodipodi.sourceforge.net/DTD/sodipodi-0.dtd"
   xmlns="http://www.w3.org/2000/svg"
   xmlns:svg="http://www.w3.org/2000/svg">
  <defs
     id="defs7" />
  <sodipodi:namedview
     id="namedview7"
     pagecolor="#ffffff"
     bordercolor="#000000"
     borderopacity="0.25"
     inkscape:showpageshadow="2"
     inkscape:pageopacity="0.0"
     inkscape:pagecheckerboard="0"
     inkscape:deskcolor="#d1d1d1"
     inkscape:zoom="1.7481481"
     inkscape:cx="54.915254"
     inkscape:cy="67.5"
     inkscape:window-width="1312"
     inkscape:window-height="449"
     inkscape:window-x="0"
     inkscape:window-y="93"
     inkscape:window-maximized="0"
     inkscape:current-layer="svg7" />
  <g
     id="g6">
    <path
       d="m47.641 61.68c-0.59766 2.4922-1.2266 4.9766-1.8359 7.4688-0.16406 0.67187-0.046876 0.82031 0.59375 0.82031 1 0.003906 1.9961 0 3.0742 0-0.058594 0.27734-0.089844 0.46094-0.13281 0.64453-0.71094 2.875-0.70312 3.9102-1.3906 6.793-0.066407 0.27344-0.054688 0.76562 0.09375 0.87891 0.35156 0.27344 0.50391-0.17578 0.66406-0.44531 1.9648-3.2422 3.1953-4.6484 5.1523-7.8945 0.51953-0.85937 1.6211-2.6172 2.1172-3.4922-1.0195-0.023437-3.0469-0.10547-4.0703-0.10547h-0.82812c0.097656-0.28906 0.15625-0.48438 0.23047-0.67188 0.46094-1.2266 0.92969-2.4531 1.3906-3.6875 0.26562-0.71875 0.14844-0.91797-0.54688-0.92188-1.2656-0.007812-2.5312 0.007813-3.793-0.007812-0.40234 0.003906-0.60547 0.15625-0.71875 0.62109z"
       id="path1" />
    <path
       d="m29.383 52.762-0.42969 0.62891c-3.1523 4.6484-4.2461 9.5625-3.1875 14.848 1.918 9.2109 10.434 16.109 20.285 16.477 0.73438 0.11719 1.4883 0.20312 2.2734 0.20312 0.15234 0 0.30469 0 0.46094-0.007813l1.7148-0.050781 1.5625 0.046875c0.25 0.007812 0.49219 0.007812 0.73828 0.007812 3.8203 0 7.3164-0.88281 10.141-2.5703 8.7188-5.2031 13.242-15.445 11.25-25.496-0.99219-5.0273-3.2266-9.8906-6.6328-14.449-2.4141-3.2305-5.0469-6.3555-7.5938-9.3828l-2.0039-2.3828c-1.9453-2.3242-2.9336-4.2109-3.3086-6.3047-0.44531-2.5 0.87891-4.7422 3.1523-5.3281 0.28516-0.074219 0.57812-0.125 0.88281-0.17578l0.51953-0.09375c0.50781-0.09375 0.875-0.51562 1.0469-1.0039 0.17188-0.48828 0.015625-1.0938-0.32812-1.4844-0.089843-0.10156-0.32812-0.32813-0.44531-0.39844-4.7773-3.0703-10.918-2.9844-15.656 0.21875-6.6406 4.4922-8.0586 13.258-5.7656 19.812-3.8906-0.51562-7.1836 0.35547-9.9961 2.6484-0.38281 0.3125-0.57812 0.79297-0.52344 1.2812 0.054688 0.48828 0.35156 0.91797 0.79297 1.1328 0.375 0.1875 0.75 0.35156 1.1172 0.51562 0.66797 0.29297 1.2969 0.57031 1.7539 0.92969 1.6953 1.3359 2.1094 3.7383 1.0078 5.8438-0.79688 1.5547-1.8281 3.0703-2.8281 4.5352zm18.859-8.707c1.4258-0.15625 2.8984 0.19531 4.1445 1.0391 3.207 2.1719 3.6875 6.7891 2.2969 9.8164l-0.32031 0.69531c-0.23438 0.51562-0.14844 1.1172 0.21484 1.5469 0.36719 0.42969 0.95312 0.60938 1.4922 0.45312 1.3164-0.36719 2.4375-0.45312 3.4219-0.25-1.6523 1.5312-2.0391 3.9922-0.92188 6.125 0.54688 1.0469 1.207 2.0117 1.8438 2.9453l0.25 0.36719c1.5469 2.2773 2.0625 4.5586 1.5547 7.1016-0.9375 4.5-5.1562 7.875-10.031 8.0156l-1.6914 0.046875-4.1211-0.12109c-1.0859-0.1875-2.082-0.52344-2.9297-1.0312-4.3047-2.5703-6.625-7.8359-5.6406-12.805 0.52344-2.6641 1.7188-5.2578 3.5469-7.7031 1.4023-1.8789 2.9531-3.7188 4.457-5.5l1.2031-1.4297c0.95312-1.1406 2.1016-2.7227 2.4805-4.8477 0.3125-1.7227-0.1875-3.3438-1.25-4.4648zm-15.227-3.9453c-0.32422-0.25391-0.66406-0.46875-1.0117-0.65625 2.2734-1.0391 4.9102-1.0938 8.1055-0.20312 0.53906 0.14844 1.125-0.023438 1.4922-0.45312 0.36719-0.42969 0.45313-1.0312 0.21875-1.543l-0.53125-1.1562c-2.5547-5.5547-1.6875-13.676 4.1758-17.641 2.9062-1.9609 6.4766-2.4531 9.6836-1.4531-2.5625 1.5391-3.9219 4.5547-3.3359 7.8359 0.59375 3.3242 2.4141 5.8359 3.9336 7.6562l2.0117 2.3906c2.5195 2.9922 5.125 6.082 7.4922 9.25 3.1445 4.2109 5.1992 8.6797 6.1094 13.277 1.5625 7.9062-1.6719 16.195-7.918 21.039 0.77344-1.2422 1.3398-2.625 1.6484-4.1094 0.63281-3.1758-0.046875-6.2656-2.0234-9.1719l-0.25391-0.375c-0.58984-0.86719-1.1875-1.7305-1.668-2.6562-0.52734-1.0078-0.34375-2.1406 0.44531-2.7656 0.21484-0.16406 0.53906-0.3125 0.92188-0.48047 0.23047-0.10156 0.46484-0.20312 0.69531-0.32031 0.4375-0.21875 0.73828-0.64844 0.78906-1.1367 0.054687-0.48828-0.14453-0.96875-0.52344-1.2812-1.5977-1.3008-3.4258-1.8828-5.5312-1.7891 1.0469-4.0156-0.003906-9.0078-3.9297-11.664-3.0234-2.0469-6.9492-2.1016-9.9688-0.15625-0.10938 0.066406-0.35156 0.29688-0.4375 0.39062-0.35938 0.38672-0.48438 0.9375-0.32031 1.4414 0.16406 0.5 0.58594 0.875 1.1094 0.97656l0.32812 0.058593c0.16406 0.027344 0.32031 0.054688 0.47656 0.09375 1.0742 0.28125 1.6719 1.3125 1.4609 2.5195-0.20703 1.1484-0.75781 2.1953-1.8516 3.5l-1.1953 1.4219c-1.5273 1.8125-3.1094 3.6875-4.5625 5.6328-2.0859 2.7969-3.457 5.7812-4.0703 8.875-0.85938 4.3438 0.27344 8.7266 2.8516 12.094-4.6484-2.4922-8.1602-6.8242-9.2578-12.105-0.85938-4.3203 0.054687-8.3828 2.7969-12.418l0.42578-0.625c1.0469-1.5352 2.1289-3.1211 3.0156-4.8203 1.7422-3.3711 1.0078-7.2617-1.7969-9.4727z"
       id="path2" />
    <path
       d="m23.344 20.883c7.5781-7.5781 17.652-11.75 28.367-11.75 10.715 0 20.793 4.1719 28.367 11.75 0.28125 0.28125 0.65625 0.42188 1.0234 0.42188 0.36719 0 0.74219-0.14063 1.0234-0.42188 0.56641-0.56641 0.56641-1.4844 0-2.0469-16.773-16.773-44.062-16.773-60.836 0-0.56641 0.56641-0.56641 1.4844 0 2.0469 0.57422 0.56641 1.4922 0.56641 2.0547 0z"
       id="path3" />
    <path
       d="m18.891 25.086h6.8672c0.80078 0 1.4453-0.64844 1.4453-1.4453 0-0.80078-0.64844-1.4453-1.4453-1.4453h-5.418v-5.4219c0-0.80078-0.64844-1.4453-1.4453-1.4453-0.80078 0-1.4453 0.64844-1.4453 1.4453v6.8672c-0.007813 0.79688 0.64062 1.4453 1.4414 1.4453z"
       id="path4" />
    <path
       d="m76.656 79.117c-15.648 15.641-41.102 15.637-56.742 0-0.56641-0.56641-1.4844-0.56641-2.0469 0-0.56641 0.56641-0.56641 1.4844 0 2.0469 8.3867 8.3867 19.398 12.578 30.418 12.578 11.016 0 22.031-4.1953 30.418-12.578 0.56641-0.56641 0.56641-1.4844 0-2.0469-0.56641-0.56641-1.4844-0.56641-2.0469 0z"
       id="path5" />
    <path
       d="m81.109 74.914h-6.8672c-0.80078 0-1.4453 0.64844-1.4453 1.4453 0 0.80078 0.64844 1.4453 1.4453 1.4453h5.418v5.418c0 0.80078 0.64844 1.4453 1.4453 1.4453 0.80078 0 1.4453-0.64844 1.4453-1.4453v-6.8672c0.007813-0.79297-0.64062-1.4414-1.4414-1.4414z"
       id="path6" />
  </g>
</svg>
