<?xml version="1.0" encoding="UTF-8" standalone="no"?>
<svg
   viewBox="0 0 68 85"
   x="0px"
   y="0px"
   version="1.1"
   id="svg2"
   sodipodi:docname="Noun Cooling.svg"
   inkscape:version="1.3.2 (091e20e, 2023-11-25)"
   xmlns:inkscape="http://www.inkscape.org/namespaces/inkscape"
   xmlns:sodipodi="http://sodipodi.sourceforge.net/DTD/sodipodi-0.dtd"
   xmlns="http://www.w3.org/2000/svg"
   xmlns:svg="http://www.w3.org/2000/svg">
  <defs
     id="defs2" />
  <sodipodi:namedview
     id="namedview2"
     pagecolor="#ffffff"
     bordercolor="#000000"
     borderopacity="0.25"
     inkscape:showpageshadow="2"
     inkscape:pageopacity="0.0"
     inkscape:pagecheckerboard="0"
     inkscape:deskcolor="#d1d1d1"
     inkscape:zoom="2.7764706"
     inkscape:cx="33.855932"
     inkscape:cy="42.5"
     inkscape:window-width="1312"
     inkscape:window-height="449"
     inkscape:window-x="0"
     inkscape:window-y="93"
     inkscape:window-maximized="0"
     inkscape:current-layer="svg2" />
  <path
     fill="#000000"
     fill-rule="evenodd"
     d="M296,182.003487 C296,178.688644 298.690015,176 302.003487,176 L357.996513,176 C361.311356,176 364,178.690015 364,182.003487 L364,237.996513 C364,241.311356 361.309985,244 357.996513,244 L302.003487,244 C298.688644,244 296,241.309985 296,237.996513 L296,182.003487 Z M300,182.003487 L300,237.996513 C300,239.101303 300.89824,240 302.003487,240 L357.996513,240 C359.101303,240 360,239.10176 360,237.996513 L360,182.003487 C360,180.898697 359.10176,180 357.996513,180 L302.003487,180 C300.898697,180 300,180.89824 300,182.003487 Z M304,210 C304,195.639627 315.638651,184 330,184 C344.360373,184 356,195.638651 356,210 C356,224.360373 344.361349,236 330,236 C315.639627,236 304,224.361349 304,210 Z M313.543477,224.602302 L313.543477,224.602302 C313.720629,224.52163 313.904611,224.434599 314.094573,224.341126 C315.429479,223.684267 316.765701,222.857082 318.005125,221.853739 C318.493062,221.458743 318.956943,221.043057 319.393398,220.606602 C319.829853,220.170147 320.245539,219.706265 320.640536,219.218329 C321.643879,217.978904 322.471064,216.642683 323.127922,215.307777 C323.248709,215.062307 323.358737,214.826824 323.458189,214.603161 C323.056799,214.03405 322.72776,213.410365 322.484489,212.745563 C322.316794,212.800806 322.14295,212.856242 321.963172,212.911558 C319.753491,213.59146 317.404385,214 315,214 C312.653768,214 310.360174,213.610983 308.197404,212.960413 C308.793916,217.396943 310.712386,221.413973 313.543477,224.602302 Z M328.689045,231.9616 L328.689045,231.9616 C328.825037,231.59848 328.959541,231.205755 329.088442,230.786828 C329.65854,228.934009 330,226.970615 330,225 C330,223.029385 329.65854,221.065991 329.088442,219.213172 C328.940924,218.733739 328.786068,218.288624 328.630041,217.882927 C327.926676,217.76133 327.254682,217.547746 326.62689,217.25505 C325.860826,218.781722 324.908228,220.30377 323.749515,221.735121 C323.268359,222.329491 322.759446,222.897408 322.221825,223.435029 C321.684205,223.972649 321.116288,224.481562 320.521918,224.962719 C319.289427,225.96045 317.989688,226.805359 316.677656,227.509949 C320.050206,230.079689 324.187621,231.697148 328.689045,231.9616 Z M344.602302,226.456523 L344.602302,226.456523 C344.52163,226.279371 344.434599,226.095389 344.341126,225.905427 C343.684267,224.570521 342.857082,223.234299 341.853739,221.994875 C341.458743,221.506938 341.043057,221.043057 340.606602,220.606602 C340.170147,220.170147 339.706265,219.754461 339.218329,219.359464 C337.978904,218.356121 336.642683,217.528936 335.307777,216.872078 C335.062307,216.751291 334.826824,216.641263 334.603161,216.541811 C334.03405,216.943201 333.410365,217.27224 332.745563,217.515511 C332.800806,217.683206 332.856242,217.85705 332.911558,218.036828 C333.59146,220.246509 334,222.595615 334,225 C334,227.346232 333.610983,229.639826 332.960413,231.802596 C337.396943,231.206084 341.413973,229.287614 344.602302,226.456523 Z M351.9616,211.310955 L351.9616,211.310955 C351.59848,211.174963 351.205755,211.040459 350.786828,210.911558 C348.934009,210.34146 346.970615,210 345,210 C343.029385,210 341.065991,210.34146 339.213172,210.911558 C338.733739,211.059076 338.288624,211.213932 337.882927,211.369959 C337.76133,212.073324 337.547746,212.745318 337.25505,213.37311 C338.781722,214.139174 340.30377,215.091772 341.735121,216.250485 C342.329491,216.731641 342.897408,217.240554 343.435029,217.778175 C343.972649,218.315795 344.481562,218.883712 344.962719,219.478082 C345.96045,220.710573 346.805359,222.010312 347.509949,223.322344 C350.079689,219.949794 351.697148,215.812379 351.9616,211.310955 Z M346.456523,195.397698 C346.279371,195.47837 346.095389,195.565401 345.905427,195.658874 C344.570521,196.315733 343.234299,197.142918 341.994875,198.146261 C341.506938,198.541257 341.043057,198.956943 340.606602,199.393398 C340.170147,199.829853 339.754461,200.293735 339.359464,200.781671 C338.356121,202.021096 337.528936,203.357317 336.872078,204.692223 C336.751291,204.937693 336.641263,205.173176 336.541811,205.396839 C336.943201,205.96595 337.27224,206.589635 337.515511,207.254437 C337.683206,207.199194 337.85705,207.143758 338.036828,207.088442 C340.246509,206.40854 342.595615,206 345,206 C347.346232,206 349.639826,206.389017 351.802596,207.039587 C351.206084,202.603057 349.287614,198.586027 346.456523,195.397698 Z M308.0384,208.689045 L308.0384,208.689045 C308.40152,208.825037 308.794245,208.959541 309.213172,209.088442 C311.065991,209.65854 313.029385,210 315,210 C316.970615,210 318.934009,209.65854 320.786828,209.088442 C321.266261,208.940924 321.711376,208.786068 322.117073,208.630041 C322.23867,207.926676 322.452254,207.254682 322.74495,206.62689 C321.218278,205.860826 319.69623,204.908228 318.264879,203.749515 C317.670509,203.268359 317.102592,202.759446 316.564971,202.221825 C316.027351,201.684205 315.518438,201.116288 315.037281,200.521918 C314.03955,199.289427 313.194641,197.989688 312.490051,196.677656 C309.920311,200.050206 308.302852,204.187621 308.0384,208.689045 Z M326,210 C326,212.205072 327.793535,214 330,214 C332.205072,214 334,212.206465 334,210 C334,207.794928 332.206465,206 330,206 C327.794928,206 326,207.793535 326,210 Z M315.397698,193.543477 L315.397698,193.543477 C315.47837,193.720629 315.565401,193.904611 315.658874,194.094573 C316.315733,195.429479 317.142918,196.765701 318.146261,198.005125 C318.541257,198.493062 318.956943,198.956943 319.393398,199.393398 C319.829853,199.829853 320.293735,200.245539 320.781671,200.640536 C322.021096,201.643879 323.357317,202.471064 324.692223,203.127922 C324.937693,203.248709 325.173176,203.358737 325.396839,203.458189 C325.96595,203.056799 326.589635,202.72776 327.254437,202.484489 C327.199194,202.316794 327.143758,202.14295 327.088442,201.963172 C326.40854,199.753491 326,197.404385 326,195 C326,192.653768 326.389017,190.360174 327.039587,188.197404 C322.603057,188.793916 318.586027,190.712386 315.397698,193.543477 Z M331.310955,188.0384 C331.174963,188.40152 331.040459,188.794245 330.911558,189.213172 C330.34146,191.065991 330,193.029385 330,195 C330,196.970615 330.34146,198.934009 330.911558,200.786828 C331.059076,201.266261 331.213932,201.711376 331.369959,202.117073 C332.073324,202.23867 332.745318,202.452254 333.37311,202.74495 C334.139174,201.218278 335.091772,199.69623 336.250485,198.264879 C336.731641,197.670509 337.240554,197.102592 337.778175,196.564971 C338.315795,196.027351 338.883712,195.518438 339.478082,195.037281 C340.710573,194.03955 342.010312,193.194641 343.322344,192.490051 C339.949794,189.920311 335.812379,188.302852 331.310955,188.0384 Z M353,236 C351.343146,236 350,234.656854 350,233 C350,231.343146 351.343146,230 353,230 C354.656854,230 356,231.343146 356,233 C356,234.656854 354.656854,236 353,236 Z M307,236 C305.343146,236 304,234.656854 304,233 C304,231.343146 305.343146,230 307,230 C308.656854,230 310,231.343146 310,233 C310,234.656854 308.656854,236 307,236 Z M353,190 C351.343146,190 350,188.656854 350,187 C350,185.343146 351.343146,184 353,184 C354.656854,184 356,185.343146 356,187 C356,188.656854 354.656854,190 353,190 Z M307,190 C305.343146,190 304,188.656854 304,187 C304,185.343146 305.343146,184 307,184 C308.656854,184 310,185.343146 310,187 C310,188.656854 308.656854,190 307,190 Z"
     transform="translate(-296 -176)"
     id="path1" />
</svg>
