<?xml version="1.0" encoding="UTF-8" standalone="no"?>
<svg
   version="1.1"
   x="0px"
   y="0px"
   viewBox="0 0 100 125"
   style="enable-background:new 0 0 100 100;"
   xml:space="preserve"
   id="svg4"
   sodipodi:docname="Noun Population Growth.svg"
   inkscape:version="1.3.2 (091e20e, 2023-11-25)"
   xmlns:inkscape="http://www.inkscape.org/namespaces/inkscape"
   xmlns:sodipodi="http://sodipodi.sourceforge.net/DTD/sodipodi-0.dtd"
   xmlns="http://www.w3.org/2000/svg"
   xmlns:svg="http://www.w3.org/2000/svg"><defs
     id="defs4" /><sodipodi:namedview
     id="namedview4"
     pagecolor="#ffffff"
     bordercolor="#000000"
     borderopacity="0.25"
     inkscape:showpageshadow="2"
     inkscape:pageopacity="0.0"
     inkscape:pagecheckerboard="0"
     inkscape:deskcolor="#d1d1d1"
     inkscape:zoom="1.888"
     inkscape:cx="49.788136"
     inkscape:cy="62.5"
     inkscape:window-width="1312"
     inkscape:window-height="449"
     inkscape:window-x="0"
     inkscape:window-y="93"
     inkscape:window-maximized="0"
     inkscape:current-layer="svg4" /><path
     d="M92.36035,79.44305v-6.30377h-3.43341v1.7168h-7.89722l-3.00421-7.89716h-7.81067v-6.66595H90.7998v-0.2832H70.21484  v-20.7113l10.75006-7.37634l0.92102,1.24786l0.44232-1.01392h8.47162v-0.2832h-8.34808l0.25195-0.57758l0.81787-1.87476  l-2.03247,0.22913l-2.03253,0.22906l0.93445,1.26599l-1.06122,0.72815h-9.11499v-13.3421h-0.2832v13.3421H26.58447v-13.3421h-0.2832  v13.3421H5.71588v0.2832h20.58539v17.40985L12.41931,60.00977H5.71582v0.2832h6.32709l-5.72308,4.30566l0.58105,0.77148  l6.7486-5.07715h12.65179v16.99609h0.2832V60.29297h8.17865v13.01794h-5.49371v5.57953h-8.06879v-9.61389L9.44086,74.25513v8.7984  H4.03302v7.94006H96.3949V79.44305H92.36035z M7.71875,88.8623H6.00189v-1.71674h1.71686V88.8623z M7.71875,86.53931H6.00189  v-1.7168h1.71686V86.53931z M10.1972,88.8623H8.48047v-1.71674h1.71674V88.8623z M10.1972,86.53931H8.48047v-1.7168h1.71674  V86.53931z M10.79279,75.58563h7.92932v1.64166h-7.92932V75.58563z M12.6759,88.8623h-1.7168v-1.71674h1.7168V88.8623z   M12.6759,86.53931h-1.7168v-1.7168h1.7168V86.53931z M15.15442,88.8623h-1.7168v-1.71674h1.7168V88.8623z M15.15442,86.53931  h-1.7168v-1.7168h1.7168V86.53931z M17.633,88.8623h-1.7168v-1.71674h1.7168V88.8623z M17.633,86.53931h-1.7168v-1.7168h1.7168  V86.53931z M20.11163,88.8623h-1.7168v-1.71674h1.7168V88.8623z M20.11163,86.53931h-1.7168v-1.7168h1.7168V86.53931z   M22.59015,88.8623h-1.7168v-1.71674h1.7168V88.8623z M22.59015,86.53931h-1.7168v-1.7168h1.7168V86.53931z M25.06873,86.53931  h-1.7168v-1.7168h1.7168V86.53931z M71.8252,76.80884c0,0.30511-0.24738,0.55243-0.55255,0.55243  c-0.30505,0-0.55243-0.24731-0.55243-0.55243c0-0.30518,0.24738-0.55249,0.55243-0.55249  C71.57782,76.25635,71.8252,76.50366,71.8252,76.80884z M70.54779,69.01361h0.59546v0.80481h-0.59546V69.01361z M70.54779,70.15814  h0.59546v0.80481h-0.59546V70.15814z M70.54779,71.30267h0.59546v0.80475h-0.59546V71.30267z M65.32147,66.95892v-6.66595h4.61017  v6.66595H65.32147z M67.6308,76.80884c0,0.30511-0.24738,0.55243-0.55255,0.55243c-0.30505,0-0.55243-0.24731-0.55243-0.55243  c0-0.30518,0.24738-0.55249,0.55243-0.55249C67.38342,76.25635,67.6308,76.50366,67.6308,76.80884z M63.13617,49.53381v0.59546  h-0.80475v-0.59546H63.13617z M62.33142,49.27094v-0.59552h0.80475v0.59552H62.33142z M63.13617,50.39221v0.59546h-0.80475v-0.59546  H63.13617z M63.13617,51.25061v0.59546h-0.80475v-0.59546H63.13617z M63.13617,52.10895v0.59552h-0.80475v-0.59552H63.13617z   M63.13617,52.96735v0.59546h-0.80475v-0.59546H63.13617z M63.13617,53.82574v0.59546h-0.80475v-0.59546H63.13617z   M63.13617,54.68402v0.59558h-0.80475v-0.59558H63.13617z M63.13617,55.54242V56.138h-0.80475v-0.59558H63.13617z   M63.13617,56.40088v0.59546h-0.80475v-0.59546H63.13617z M63.13617,57.25928v0.59546h-0.80475v-0.59546H63.13617z   M63.13617,58.11755v0.59558h-0.80475v-0.59558H63.13617z M63.13617,58.97595v0.59558h-0.80475v-0.59558H63.13617z   M63.13617,59.83435v0.59552h-0.80475v-0.59552H63.13617z M63.13617,60.69269v0.59558h-0.80475v-0.59558H63.13617z   M63.13617,61.55109v0.59558h-0.80475v-0.59558H63.13617z M63.13617,62.40948v0.59558h-0.80475v-0.59558H63.13617z   M63.13617,63.26788v0.59552h-0.80475v-0.59552H63.13617z M63.13617,64.12622v0.59558h-0.80475v-0.59558H63.13617z   M63.13617,64.98462v0.59552h-0.80475v-0.59552H63.13617z M63.13617,65.84302v0.59546h-0.80475v-0.59546H63.13617z   M63.13617,66.70142v0.59546h-0.80475v-0.59546H63.13617z M63.13617,67.55975v0.59558h-0.80475v-0.59558H63.13617z   M63.13617,68.41815v0.59546h-0.80475v-0.59546H63.13617z M62.88391,76.25635c0.30511,0,0.55243,0.24731,0.55243,0.55249  c0,0.30511-0.24731,0.55243-0.55243,0.55243c-0.30518,0-0.55249-0.24731-0.55249-0.55243  C62.33142,76.50366,62.57874,76.25635,62.88391,76.25635z M64.98108,76.25635c0.30511,0,0.55249,0.24731,0.55249,0.55249  c0,0.30511-0.24738,0.55243-0.55249,0.55243s-0.55249-0.24731-0.55249-0.55243  C64.42859,76.50366,64.67596,76.25635,64.98108,76.25635z M69.93164,60.00977h-4.61017V48.33203h-1.2876v-4.79242l5.89777-4.04681  V60.00977z M78.91711,32.15607l-8.70227,5.97101v-5.97101H78.91711z M26.58447,32.15607h43.34717v6.16528l-5.89777,4.04669v-2.70569  h-1.7168v3.88367l-11.40302,7.8241L37.59424,41.06982l-11.00977,8.28302V32.15607z M14.02594,60.00977l12.27533-9.23499v9.23499  H14.02594z M38.19666,75.17523h-7.92938v-0.8208h7.92938V75.17523z M37.59033,57.28607v0.8584H35.8844v-0.8584H37.59033z   M35.8844,56.8891v-0.8584h1.70593v0.8584H35.8844z M37.59033,58.54144v0.8584H35.8844v-0.8584H37.59033z M37.59033,59.79681v0.8584  H35.8844v-0.8584H37.59033z M37.59033,61.05219v0.8584H35.8844v-0.8584H37.59033z M37.59033,62.30756v0.8584H35.8844v-0.8584  H37.59033z M37.59033,63.56299v0.85834H35.8844v-0.85834H37.59033z M37.59033,64.81836v0.85834H35.8844v-0.85834H37.59033z   M37.59033,66.07373v0.8584H35.8844v-0.8584H37.59033z M37.59033,67.3291v0.8584H35.8844v-0.8584H37.59033z M37.59033,68.58447  v0.8584H35.8844v-0.8584H37.59033z M37.59033,69.83984v0.8584H35.8844v-0.8584H37.59033z M37.59033,71.09521v0.8584H35.8844v-0.8584  H37.59033z M41.20087,60.29297h4.09088l-4.09088,4.09082V60.29297z M47.85046,74.83624l-0.01111-0.74127h0.84998V73.5509h-0.85815  l-0.01111-0.74133h0.86926v-0.54401h-0.87738l-0.01111-0.74139h0.88849V70.9801h-0.89661l-0.01111-0.74133h0.90771v-0.54401H47.7735  l-0.01111-0.74133h0.92694v-0.54407h-0.93512l-0.01111-0.74127h0.94623v-0.54407h-0.95441l-0.01111-0.74139h0.96552v-0.54407  H47.7157l-0.01111-0.74127h0.98474v-0.54407h-0.99286l-0.01111-0.74133h1.00397v-0.54401h-1.01215l-0.02399-1.6012l1.42303,1.42303  v13.35431h-1.20166l-0.01593-1.06372h0.83069v-0.54407H47.85046z M52.31696,87.16638h-5.44733v-1.22852h5.44733V87.16638z   M54.31573,74.76483h-0.40594v-9.51776l-4.95404-4.9541h10.61444v5.12091h-3.33777v9.35095H55.8266v-9.35095h-0.55249v9.35095  h-0.40594v-9.35095h-0.55243V74.76483z M60.04236,87.16638h-5.44733v-1.22852h5.44733V87.16638z M60.84711,69.01361h-0.80475  v-0.59546h0.80475V69.01361z M60.84711,68.15533h-0.80475v-0.59558h0.80475V68.15533z M60.84711,67.29688h-0.80475v-0.59546h0.80475  V67.29688z M60.84711,66.43848h-0.80475v-0.59546h0.80475V66.43848z M60.84711,65.58014h-0.80475v-0.59552h0.80475V65.58014z   M60.84711,64.7218h-0.80475v-0.59558h0.80475V64.7218z M60.84711,63.8634h-0.80475v-0.59552h0.80475V63.8634z M60.84711,63.00507  h-0.80475v-0.59558h0.80475V63.00507z M60.84711,62.14667h-0.80475v-0.59558h0.80475V62.14667z M60.84711,61.28827h-0.80475  v-0.59558h0.80475V61.28827z M60.84711,60.42987h-0.80475v-0.59552h0.80475V60.42987z M60.84711,59.57153h-0.80475v-0.59558h0.80475  V59.57153z M60.84711,58.71313h-0.80475v-0.59558h0.80475V58.71313z M60.84711,57.85474h-0.80475v-0.59546h0.80475V57.85474z   M60.84711,56.99634h-0.80475v-0.59546h0.80475V56.99634z M60.84711,56.138h-0.80475v-0.59558h0.80475V56.138z M60.84711,55.2796  h-0.80475v-0.59558h0.80475V55.2796z M60.84711,54.4212h-0.80475v-0.59546h0.80475V54.4212z M60.84711,53.56281h-0.80475v-0.59546  h0.80475V53.56281z M60.84711,52.70447h-0.80475v-0.59552h0.80475V52.70447z M60.84711,51.84607h-0.80475v-0.59546h0.80475V51.84607  z M60.84711,50.98767h-0.80475v-0.59546h0.80475V50.98767z M60.84711,50.12927h-0.80475v-0.59546h0.80475V50.12927z   M60.84711,49.27094h-0.80475v-0.59552h0.80475V49.27094z M61.99158,69.01361h-0.80469v-0.59546h0.80469V69.01361z   M61.99158,68.15533h-0.80469v-0.59558h0.80469V68.15533z M61.99158,67.29688h-0.80469v-0.59546h0.80469V67.29688z   M61.99158,66.43848h-0.80469v-0.59546h0.80469V66.43848z M61.99158,65.58014h-0.80469v-0.59552h0.80469V65.58014z   M61.99158,64.7218h-0.80469v-0.59558h0.80469V64.7218z M61.99158,63.8634h-0.80469v-0.59552h0.80469V63.8634z M61.99158,63.00507  h-0.80469v-0.59558h0.80469V63.00507z M61.99158,62.14667h-0.80469v-0.59558h0.80469V62.14667z M61.99158,61.28827h-0.80469  v-0.59558h0.80469V61.28827z M61.99158,60.42987h-0.80469v-0.59552h0.80469V60.42987z M61.99158,59.57153h-0.80469v-0.59558h0.80469  V59.57153z M61.99158,58.71313h-0.80469v-0.59558h0.80469V58.71313z M61.99158,57.85474h-0.80469v-0.59546h0.80469V57.85474z   M61.99158,56.99634h-0.80469v-0.59546h0.80469V56.99634z M61.99158,56.138h-0.80469v-0.59558h0.80469V56.138z M61.99158,55.2796  h-0.80469v-0.59558h0.80469V55.2796z M61.99158,54.4212h-0.80469v-0.59546h0.80469V54.4212z M61.99158,53.56281h-0.80469v-0.59546  h0.80469V53.56281z M61.99158,52.70447h-0.80469v-0.59552h0.80469V52.70447z M61.99158,51.84607h-0.80469v-0.59546h0.80469V51.84607  z M61.99158,50.98767h-0.80469v-0.59546h0.80469V50.98767z M61.99158,50.12927h-0.80469v-0.59546h0.80469V50.12927z   M61.99158,49.27094h-0.80469v-0.59552h0.80469V49.27094z M59.57019,48.24622v11.76355H48.67261l-1.54883-1.54883l-1.54883,1.54883  h-4.37408v-5.06818h-6.43774v5.06818h-8.17865v-9.44806l11.00195-8.27704l13.29346,10.28076l11.43719-7.84784v3.52863H59.57019z   M67.76788,87.16638h-5.44733v-1.22852h5.44733V87.16638z M69.17548,77.36127c-0.30511,0-0.55243-0.24731-0.55243-0.55243  c0-0.30518,0.24731-0.55249,0.55243-0.55249c0.30518,0,0.55249,0.24731,0.55249,0.55249  C69.72797,77.11395,69.48065,77.36127,69.17548,77.36127z M75.49335,87.16638h-5.44733v-1.22852h5.44733V87.16638z   M77.19482,74.3786H76.5993v-0.80481h0.59552V74.3786z M77.19482,73.23407H76.5993v-0.80475h0.59552V73.23407z M77.19482,72.08954  H76.5993v-0.80475h0.59552V72.08954z M83.21887,87.16638h-5.44745v-1.22852h5.44745V87.16638z M90.94421,87.16638h-5.44727v-1.22852  h5.44727V87.16638z M92.00641,77.99982h-1.83484v-1.19098h1.83484V77.99982z M92.00641,76.487h-1.83484v-1.19104h1.83484V76.487z   M92.00641,74.97406h-1.83484v-1.19104h1.83484V74.97406z"
     id="path1" /><ellipse
     cx="81.89953"
     cy="15.49905"
     rx="1.67578"
     ry="2.03174"
     id="ellipse1" /><path
     d="M81.89953,19.29367c3.05627,0,4.36157,2.30939,4.83752,3.52478c1.32367-1.22937,2.15686-2.97961,2.15686-4.92859  c0-3.71814-3.01416-6.7323-6.7323-6.7323s-6.7323,3.01416-6.7323,6.7323c0,1.76208,0.6825,3.36096,1.79053,4.56091  C77.79967,21.19016,79.12939,19.29367,81.89953,19.29367z M81.89953,12.47513c1.47168,0,2.66797,1.35645,2.66797,3.02393  s-1.19629,3.02393-2.66797,3.02393s-2.66797-1.35645-2.66797-3.02393S80.42785,12.47513,81.89953,12.47513z"
     id="path2" /><path
     d="M81.89953,20.28586c-2.48798,0-3.53674,1.88416-3.91681,2.87628c1.14856,0.91162,2.59857,1.45996,4.17889,1.45996  c1.3941,0,2.68927-0.42383,3.76367-1.14954C85.67205,22.6481,84.7033,20.28586,81.89953,20.28586z"
     id="path3" /></svg>
